<?xml version="1.0" encoding="UTF-8" standalone="no"?>
<!-- Created with Inkscape (http://www.inkscape.org/) -->

<svg
   xmlns:dc="http://purl.org/dc/elements/1.1/"
   xmlns:cc="http://creativecommons.org/ns#"
   xmlns:rdf="http://www.w3.org/1999/02/22-rdf-syntax-ns#"
   xmlns:svg="http://www.w3.org/2000/svg"
   xmlns="http://www.w3.org/2000/svg"
   xmlns:sodipodi="http://sodipodi.sourceforge.net/DTD/sodipodi-0.dtd"
   xmlns:inkscape="http://www.inkscape.org/namespaces/inkscape"
   width="64"
   height="64"
   viewBox="0 0 16.933333 16.933334"
   version="1.1"
   id="svg4542"
   inkscape:version="0.92.4 5da689c313, 2019-01-14"
   sodipodi:docname="about-logo.svg">
  <defs
     id="defs4536" />
  <sodipodi:namedview
     id="base"
     pagecolor="#ffffff"
     bordercolor="#666666"
     borderopacity="1.0"
     inkscape:pageopacity="0.0"
     inkscape:pageshadow="2"
     inkscape:zoom="14.671875"
     inkscape:cx="32"
     inkscape:cy="34.726305"
     inkscape:document-units="px"
     inkscape:current-layer="layer1"
     showgrid="false"
     units="px"
     inkscape:window-width="1890"
     inkscape:window-height="1123"
     inkscape:window-x="30"
     inkscape:window-y="40"
     inkscape:window-maximized="0" />
  <metadata
     id="metadata4539">
    <rdf:RDF>
      <cc:Work
         rdf:about="">
        <dc:format>image/svg+xml</dc:format>
        <dc:type
           rdf:resource="http://purl.org/dc/dcmitype/StillImage" />
        <dc:title></dc:title>
      </cc:Work>
    </rdf:RDF>
  </metadata>
  <g
     inkscape:label="Layer 1"
     inkscape:groupmode="layer"
     id="layer1"
     transform="translate(0,-280.06665)">
    <path
       inkscape:connector-curvature="0"
       d="m 3.5142835,281.12499 c -0.9727368,0.0111 -1.6845519,-0.0223 -2.266521,0.28392 -0.29097986,0.15313 -0.5204823,0.41283 -0.64779258,0.73653 -0.12731045,0.32372 -0.17365114,0.70814 -0.17365114,1.19341 v 1.47595 c 0,0.48527 0.0463089,0.86969 0.17365114,1.19341 0.12731049,0.3237 0.35681217,0.58326 0.64779258,0.7365 0.5819691,0.30648 1.2937842,0.27334 2.266521,0.28395 h 0.0031 1.5492627 0.0031 c 0.9727368,-0.0111 1.6845519,0.0223 2.2665215,-0.28395 0.2909797,-0.15313 0.5204816,-0.4128 0.647792,-0.7365 0.1271707,-0.32372 0.1735109,-0.70814 0.1735109,-1.19341 v -1.47595 c 0,-0.48527 -0.04631,-0.86969 -0.1736506,-1.19341 -0.1273017,-0.3237 -0.3568123,-0.58326 -0.6477931,-0.73653 -0.5819694,-0.30648 -1.2937767,-0.27333 -2.266521,-0.28392 h -0.00309 -1.5492627 z m 0.00464,0.73794 h 0.00462 1.5415006 c 0.9729918,0.0111 1.6136409,0.044 1.8965659,0.1933 0.1417976,0.0748 0.2235564,0.15703 0.2989822,0.3488 0.075431,0.1919 0.1238237,0.49681 0.1238237,0.93398 v 1.47592 c 0,0.43714 -0.048402,0.74216 -0.1238237,0.93398 -0.075459,0.19188 -0.155669,0.27416 -0.2974675,0.3488 -0.2829322,0.14894 -0.9250808,0.18214 -1.8980806,0.19301 H 3.5233442 3.518815 c -0.9729995,-0.0111 -1.6151485,-0.0441 -1.8980809,-0.19301 -0.1417979,-0.0748 -0.2220402,-0.15703 -0.2974671,-0.3488 -0.075432,-0.1919 -0.1238245,-0.49684 -0.1238245,-0.93398 v -1.47592 c 0,-0.43717 0.048398,-0.74221 0.1238245,-0.93398 0.075456,-0.1919 0.1556689,-0.27416 0.2974671,-0.3488 0.2829327,-0.14894 0.9250814,-0.18243 1.8980809,-0.1933 z"
       style="fill:#000000;stroke-width:0.75533652"
       id="path8" />
    <path
       inkscape:connector-curvature="0"
       d="m 12.534402,281.12499 c -0.816181,0.009 -1.413434,-0.0187 -1.901739,0.23822 -0.244148,0.12849 -0.436713,0.34639 -0.543534,0.61799 -0.10682,0.27162 -0.1457024,0.59417 -0.1457024,1.00134 v 1.23841 c 0,0.40716 0.038856,0.72971 0.1457024,1.00133 0.106821,0.27161 0.299386,0.48939 0.543534,0.61797 0.488305,0.25715 1.085558,0.22934 1.901739,0.23825 h 0.0026 1.299918 0.0026 c 0.816181,-0.009 1.413433,0.0187 1.901738,-0.23825 0.244148,-0.12849 0.436713,-0.34636 0.543534,-0.61797 0.106702,-0.27162 0.145585,-0.59417 0.145585,-1.00133 v -1.23841 c 0,-0.40717 -0.03886,-0.72972 -0.145703,-1.00134 -0.106815,-0.2716 -0.299387,-0.48938 -0.543536,-0.61799 -0.488304,-0.25715 -1.085551,-0.22933 -1.901738,-0.23822 h -0.0026 -1.299918 z m 0.0039,0.61917 h 0.0039 1.293406 c 0.816394,0.009 1.353934,0.0369 1.591324,0.16219 0.118976,0.0628 0.187576,0.13176 0.250862,0.29266 0.06329,0.16102 0.103896,0.41686 0.103896,0.78367 v 1.23837 c 0,0.36679 -0.04061,0.62272 -0.103896,0.78367 -0.06332,0.16099 -0.130615,0.23003 -0.249591,0.29266 -0.237396,0.12497 -0.776194,0.15282 -1.592595,0.16194 h -1.293573 -0.0038 c -0.816401,-0.009 -1.3552,-0.037 -1.592596,-0.16194 -0.118976,-0.0628 -0.186304,-0.13176 -0.249591,-0.29266 -0.06329,-0.16102 -0.103896,-0.41688 -0.103896,-0.78367 v -1.23837 c 0,-0.36681 0.04061,-0.62276 0.103896,-0.78367 0.06331,-0.16101 0.130614,-0.23003 0.249591,-0.29266 0.237396,-0.12497 0.776195,-0.15307 1.592596,-0.16219 z"
       style="fill:#000000;stroke-width:0.63376933"
       id="path8-3" />
    <path
       inkscape:connector-curvature="0"
       d="m 7.7754372,288.12872 c -1.1451759,0.0131 -1.983177,-0.0263 -2.6683132,0.33425 -0.3425625,0.18028 -0.6127493,0.48601 -0.7626282,0.8671 -0.149879,0.3811 -0.2044346,0.83367 -0.2044346,1.40497 v 1.73759 c 0,0.5713 0.054518,1.02386 0.2044346,1.40497 0.1498791,0.38108 0.4200651,0.68665 0.7626282,0.86706 0.6851362,0.36081 1.5231373,0.3218 2.6683132,0.33429 h 0.00365 1.8239044 0.00365 c 1.1451754,-0.0131 1.9831754,0.0263 2.6683124,-0.33429 0.342561,-0.18028 0.612748,-0.48598 0.762627,-0.86706 0.149714,-0.38111 0.20427,-0.83367 0.20427,-1.40497 v -1.73759 c 0,-0.5713 -0.05452,-1.02387 -0.204434,-1.40497 -0.149874,-0.38109 -0.42007,-0.68666 -0.762634,-0.8671 -0.685136,-0.36081 -1.523127,-0.32178 -2.6683109,-0.33425 h -0.00365 -1.8239032 z m 0.00542,0.86876 h 0.00542 1.8147664 c 1.1454754,0.0131 1.8996934,0.0518 2.2327734,0.22756 0.166935,0.0881 0.263186,0.18487 0.351983,0.41064 0.0888,0.22591 0.145775,0.58488 0.145775,1.09954 v 1.73756 c 0,0.51464 -0.05698,0.87373 -0.145775,1.09955 -0.08884,0.2259 -0.183265,0.32276 -0.3502,0.41063 -0.333088,0.17535 -1.089071,0.21443 -2.2345564,0.22723 h -1.8150007 -0.0053 c -1.1454875,-0.0131 -1.9014716,-0.0519 -2.2345607,-0.22723 -0.1669347,-0.0881 -0.2614017,-0.18486 -0.3501997,-0.41063 -0.088804,-0.22592 -0.1457751,-0.58491 -0.1457751,-1.09955 v -1.73756 c 0,-0.51466 0.056978,-0.87378 0.1457751,-1.09954 0.088832,-0.22592 0.1832647,-0.32277 0.3501997,-0.41064 0.3330891,-0.17534 1.0890732,-0.21477 2.2345595,-0.22756 z"
       style="fill:#000000;stroke-width:0.88923669"
       id="path8-3-6" />
  </g>
</svg>
